# xmcd
#
# Track frame offsets: 
#        150
#        16277
#        31033
#        54836
#        69224
#        85694
#        100432
#        114010
#        130920
#        141879
#
# Disc length: 2134 seconds
#
# Revision: 1
# Processed by: cddbd v1.5.2PL0 Copyright (c) Steve Scherf et al.
# Submitted via: ExactAudioCopy v0.95b4
#
DISCID=7008540a
DTITLE=Amy Grant - Hymns For The Journey
DYEAR=2006
DGENRE=Christian
TTITLE0=My Jesus I Love Thee
TTITLE1=Fairest Lord Jesus
TTITLE2=Imagine - Sing the Wondrous Love of Jesus
TTITLE3=Anywhere With Jesus
TTITLE4=Rock Of Ages
TTITLE5=Come Thou Fount of Every Blessing
TTITLE6=Carry You
TTITLE7=Sweet Will Of God
TTITLE8=Holy, Holy, Holy
TTITLE9=Softly and Tenderly
EXTD=
EXTT0=
EXTT1=
EXTT2=
EXTT3=
EXTT4=
EXTT5=
EXTT6=
EXTT7=
EXTT8=
EXTT9=
PLAYORDER=
